<svg width="76" height="66" viewBox="0 0 76 66" fill="none" xmlns="http://www.w3.org/2000/svg">
<path fill-rule="evenodd" clip-rule="evenodd" d="M18.2474 0.0348332C17.283 0.137442 15.642 0.761664 14.4942 1.46247C12.9885 2.38182 11.9894 3.49821 11.1313 5.22004C10.1172 7.25476 9.74047 9.65761 9.59829 14.9979C9.48635 19.2022 9.19857 21.0542 8.39387 22.75C7.78828 24.0261 7.016 24.9094 6.25062 25.2012C6.04731 25.2787 5.86712 25.3839 5.85013 25.435C5.76411 25.6943 7.21791 26.7293 8.32917 27.2001C10.0028 27.909 11.3465 28.1772 14.5434 28.4403L15.1446 28.4898L15.1452 29.5154C15.1463 31.4974 15.1906 31.7001 17.0723 38.3322C18.7799 44.351 19.3469 46.4083 19.3087 46.4467C19.276 46.4795 17.9395 45.0278 16.0345 42.8907C14.8141 41.5214 13.4999 40.1234 13.1171 39.787L12.835 39.5392L11.2422 39.7732C9.58991 40.016 9.20602 40.0481 9.14474 39.9484C9.1248 39.9161 9.45858 39.0835 9.88646 38.0981C11.8383 33.603 12.5772 31.871 12.5533 31.847C12.5391 31.8327 12.1477 32.0109 11.6835 32.2429C10.6587 32.7552 10.0355 32.988 7.77548 33.7022C3.70363 34.989 2.30878 35.6728 1.26105 36.8954C0.293523 38.0246 0.201913 38.4068 0.0862572 41.7974L0 44.3277L0.300194 44.5933C3.25986 47.2112 7.50818 48.7665 14.685 49.8593C16.4712 50.1313 18.1212 50.2801 20.01 50.3392C21.6652 50.3911 23.3385 50.2943 23.7077 50.1253C23.9222 50.0272 23.9565 49.9518 24.2893 48.8502C24.6988 47.4944 25.4328 46.1723 26.3128 45.2052C27.1806 44.2514 27.732 43.9792 31.1508 42.817C32.3946 42.3941 33.7787 41.9014 34.2267 41.7219C36.2966 40.8928 40.1841 38.9921 40.4994 38.655C40.663 38.4801 40.672 38.434 40.5912 38.1879C40.4726 37.8271 39.9451 37.0053 39.5907 36.6292C38.6677 35.6497 37.1679 34.9123 34.1879 33.9727C31.3147 33.0667 29.8975 32.525 29.2441 32.083C28.7162 31.7258 28.716 31.7257 28.7686 31.881C28.7949 31.9582 29.4464 33.6166 30.2165 35.5663C31.7293 39.3966 31.8684 39.8756 31.4947 39.9698C31.3329 40.0106 30.808 39.9433 28.4031 39.5734C28.1358 39.5322 28.0999 39.5577 27.4196 40.2726C27.0312 40.6807 25.7726 42.0588 24.6228 43.3352C22.444 45.7537 21.8156 46.4094 21.8156 46.2642C21.8156 46.2168 22.2489 44.7808 22.7786 43.0731C23.3083 41.3655 24.3031 38.1419 24.9893 35.9096L26.237 31.8509V30.1707V28.4906L26.7606 28.4113C27.0485 28.3677 27.7554 28.2942 28.3314 28.248C30.1532 28.1019 32.4703 27.4762 33.809 26.7691C34.5364 26.3849 35.5453 25.7044 35.5453 25.598C35.5453 25.565 35.335 25.4075 35.0778 25.2481C33.5658 24.3108 32.4181 22.4511 32.2088 20.599C32.1632 20.1966 32.0956 17.4482 32.0585 14.4914C31.9842 8.57675 32.0014 8.78805 31.4578 7.09473C30.8471 5.1923 29.9918 3.78788 28.9368 2.95509C28.034 2.24252 26.8587 1.83543 25.694 1.83185C24.9506 1.82951 24.615 1.73321 24.2028 1.40388C23.2348 0.630462 22.6435 0.335491 21.6992 0.15466C21.0119 0.0230686 19.0105 -0.0464279 18.2474 0.0348332ZM52.7658 5.51228C52.01 5.57531 45.2501 5.60017 43.0308 5.54804L42.3327 5.53168L42.338 5.8445C42.3452 6.26459 42.6737 6.96112 43.0666 7.38924L43.3877 7.73913L42.7439 8.22802C41.1386 9.44686 40.0175 11.0746 39.357 13.1455C38.9684 14.3641 38.9191 14.8254 38.9254 17.1794C38.9307 19.1417 38.9484 19.4167 39.1355 20.4491C39.3615 21.696 39.3618 21.695 38.8538 21.697C38.4423 21.6987 38.102 21.8798 37.8724 22.2197C37.6883 22.4922 37.6788 22.5599 37.6842 23.5632C37.6908 24.7694 37.7766 25.3726 38.1451 26.8014C38.7996 29.3392 39.5329 30.58 40.378 30.58C40.5743 30.58 40.6661 30.6195 40.6945 30.7164C40.7165 30.7913 40.8267 31.2384 40.9395 31.7098C41.4685 33.9211 42.6745 36.186 44.0749 37.5976C44.8038 38.3324 45.4972 38.8233 46.5365 39.3405C47.9612 40.0495 48.8933 40.3496 50.0509 40.472C51.7093 40.6474 53.0605 40.5368 54.2901 40.1248C57.0733 39.1922 59.3011 37.2455 60.5081 34.6913C60.9344 33.7893 61.3644 32.6081 61.5508 31.8273C61.8615 30.526 61.8545 30.5421 62.1129 30.5321C62.2409 30.5271 62.4242 30.5184 62.5201 30.5127C62.7444 30.4992 63.2264 30.0146 63.4941 29.5335C64.5338 27.665 65.35 23.4718 64.8751 22.4384C64.6461 21.9401 64.3805 21.7442 63.8718 21.6987L63.4316 21.6592L63.4349 21.3086C63.4368 21.1158 63.5133 20.5198 63.6049 19.9842C63.6966 19.4485 63.8123 18.6597 63.8622 18.2312C63.9794 17.2239 63.9814 15.0346 63.8659 14.3356C63.6031 12.746 62.8253 11.3247 61.8284 10.6126C61.2327 10.1872 60.951 10.0653 60.1611 9.89142C59.4 9.72384 59.3118 9.6774 59.247 9.40978C59.1525 9.02015 58.5794 8.1403 58.0595 7.58674C57.4542 6.94234 56.4932 6.27978 55.6383 5.91765C54.5665 5.46359 54.1141 5.39978 52.7658 5.51228ZM41.6733 41.1924C39.9496 42.2827 38.3046 43.1402 36.2636 44.0126C35.0747 44.5207 34.5649 44.7135 32.2874 45.516C29.5256 46.4891 28.8814 46.8605 28.1445 47.9042C26.9301 49.6243 26.4644 51.8345 26.5827 55.3168C26.6595 57.5755 26.8108 59.106 27.0245 59.7832C27.1392 60.1469 27.7824 60.5999 29.1239 61.2618C33.5501 63.4458 38.8493 64.9511 44.6598 65.6751C47.9897 66.0901 54.3766 66.111 57.6914 65.7179C63.5062 65.0283 68.4366 63.6587 73.2681 61.391C75.4378 60.3726 75.6174 60.1864 75.8571 58.7051C76.0297 57.6384 76.0523 52.6959 75.89 51.5381C75.58 49.3286 74.4055 47.3419 72.8964 46.4747C72.6688 46.3438 71.5456 45.9272 70.4005 45.5488C69.2553 45.1703 67.8647 44.6762 67.31 44.4505C65.9343 43.8908 63.1644 42.515 61.5814 41.6051C60.8625 41.1917 60.2329 40.8696 60.1823 40.8891C60.1317 40.9086 59.9813 41.2704 59.8482 41.693C59.3836 43.1681 55.4661 55.4804 55.1598 56.4287C54.9898 56.9546 54.8216 57.3667 54.7858 57.3445C54.7045 57.294 54.1826 55.8776 53.3416 53.4247L52.6928 51.5327L53.2882 50.581C54.2293 49.0766 54.6274 48.0169 54.6274 47.0168C54.6274 45.6793 53.8747 44.8807 52.4305 44.6859C51.2757 44.5301 49.9535 44.6235 49.3183 44.9057C48.8571 45.1106 48.4438 45.5024 48.2058 45.9604C48.0258 46.307 48.0004 46.4454 48.0045 47.0582C48.0115 48.0974 48.4265 49.1582 49.4886 50.8515L49.9501 51.5873L49.6833 52.3613C49.0469 54.2068 48.1875 56.5938 48.0302 56.9529L47.8596 57.3424L47.7151 57.0308C47.5463 56.6668 46.6769 53.9939 44.9402 48.4996C43.8934 45.1877 42.6945 41.5234 42.4866 41.0006C42.406 40.7979 42.2321 40.8389 41.6733 41.1924Z" fill="#0B8F98"/>
<path fill-rule="evenodd" clip-rule="evenodd" d="M18.2474 0.0348332C17.283 0.137442 15.642 0.761664 14.4942 1.46247C12.9885 2.38182 11.9894 3.49821 11.1313 5.22004C10.1172 7.25476 9.74047 9.65761 9.59829 14.9979C9.48635 19.2022 9.19857 21.0542 8.39387 22.75C7.78828 24.0261 7.016 24.9094 6.25062 25.2012C6.04731 25.2787 5.86712 25.3839 5.85013 25.435C5.76411 25.6943 7.21791 26.7293 8.32917 27.2001C10.0028 27.909 11.3465 28.1772 14.5434 28.4403L15.1446 28.4898L15.1452 29.5154C15.1463 31.4974 15.1906 31.7001 17.0723 38.3322C18.7799 44.351 19.3469 46.4083 19.3087 46.4467C19.276 46.4795 17.9395 45.0278 16.0345 42.8907C14.8141 41.5214 13.4999 40.1234 13.1171 39.787L12.835 39.5392L11.2422 39.7732C9.58991 40.016 9.20602 40.0481 9.14474 39.9484C9.1248 39.9161 9.45858 39.0835 9.88646 38.0981C11.8383 33.603 12.5772 31.871 12.5533 31.847C12.5391 31.8327 12.1477 32.0109 11.6835 32.2429C10.6587 32.7552 10.0355 32.988 7.77548 33.7022C3.70363 34.989 2.30878 35.6728 1.26105 36.8954C0.293523 38.0246 0.201913 38.4068 0.0862572 41.7974L0 44.3277L0.300194 44.5933C3.25986 47.2112 7.50818 48.7665 14.685 49.8593C16.4712 50.1313 18.1212 50.2801 20.01 50.3392C21.6652 50.3911 23.3385 50.2943 23.7077 50.1253C23.9222 50.0272 23.9565 49.9518 24.2893 48.8502C24.6988 47.4944 25.4328 46.1723 26.3128 45.2052C27.1806 44.2514 27.732 43.9792 31.1508 42.817C32.3946 42.3941 33.7787 41.9014 34.2267 41.7219C36.2966 40.8928 40.1841 38.9921 40.4994 38.655C40.663 38.4801 40.672 38.434 40.5912 38.1879C40.4726 37.8271 39.9451 37.0053 39.5907 36.6292C38.6677 35.6497 37.1679 34.9123 34.1879 33.9727C31.3147 33.0667 29.8975 32.525 29.2441 32.083C28.7162 31.7258 28.716 31.7257 28.7686 31.881C28.7949 31.9582 29.4464 33.6166 30.2165 35.5663C31.7293 39.3966 31.8684 39.8756 31.4947 39.9698C31.3329 40.0106 30.808 39.9433 28.4031 39.5734C28.1358 39.5322 28.0999 39.5577 27.4196 40.2726C27.0312 40.6807 25.7726 42.0588 24.6228 43.3352C22.444 45.7537 21.8156 46.4094 21.8156 46.2642C21.8156 46.2168 22.2489 44.7808 22.7786 43.0731C23.3083 41.3655 24.3031 38.1419 24.9893 35.9096L26.237 31.8509V30.1707V28.4906L26.7606 28.4113C27.0485 28.3677 27.7554 28.2942 28.3314 28.248C30.1532 28.1019 32.4703 27.4762 33.809 26.7691C34.5364 26.3849 35.5453 25.7044 35.5453 25.598C35.5453 25.565 35.335 25.4075 35.0778 25.2481C33.5658 24.3108 32.4181 22.4511 32.2088 20.599C32.1632 20.1966 32.0956 17.4482 32.0585 14.4914C31.9842 8.57675 32.0014 8.78805 31.4578 7.09473C30.8471 5.1923 29.9918 3.78788 28.9368 2.95509C28.034 2.24252 26.8587 1.83543 25.694 1.83185C24.9506 1.82951 24.615 1.73321 24.2028 1.40388C23.2348 0.630462 22.6435 0.335491 21.6992 0.15466C21.0119 0.0230686 19.0105 -0.0464279 18.2474 0.0348332ZM52.7658 5.51228C52.01 5.57531 45.2501 5.60017 43.0308 5.54804L42.3327 5.53168L42.338 5.8445C42.3452 6.26459 42.6737 6.96112 43.0666 7.38924L43.3877 7.73913L42.7439 8.22802C41.1386 9.44686 40.0175 11.0746 39.357 13.1455C38.9684 14.3641 38.9191 14.8254 38.9254 17.1794C38.9307 19.1417 38.9484 19.4167 39.1355 20.4491C39.3615 21.696 39.3618 21.695 38.8538 21.697C38.4423 21.6987 38.102 21.8798 37.8724 22.2197C37.6883 22.4922 37.6788 22.5599 37.6842 23.5632C37.6908 24.7694 37.7766 25.3726 38.1451 26.8014C38.7996 29.3392 39.5329 30.58 40.378 30.58C40.5743 30.58 40.6661 30.6195 40.6945 30.7164C40.7165 30.7913 40.8267 31.2384 40.9395 31.7098C41.4685 33.9211 42.6745 36.186 44.0749 37.5976C44.8038 38.3324 45.4972 38.8233 46.5365 39.3405C47.9612 40.0495 48.8933 40.3496 50.0509 40.472C51.7093 40.6474 53.0605 40.5368 54.2901 40.1248C57.0733 39.1922 59.3011 37.2455 60.5081 34.6913C60.9344 33.7893 61.3644 32.6081 61.5508 31.8273C61.8615 30.526 61.8545 30.5421 62.1129 30.5321C62.2409 30.5271 62.4242 30.5184 62.5201 30.5127C62.7444 30.4992 63.2264 30.0146 63.4941 29.5335C64.5338 27.665 65.35 23.4718 64.8751 22.4384C64.6461 21.9401 64.3805 21.7442 63.8718 21.6987L63.4316 21.6592L63.4349 21.3086C63.4368 21.1158 63.5133 20.5198 63.6049 19.9842C63.6966 19.4485 63.8123 18.6597 63.8622 18.2312C63.9794 17.2239 63.9814 15.0346 63.8659 14.3356C63.6031 12.746 62.8253 11.3247 61.8284 10.6126C61.2327 10.1872 60.951 10.0653 60.1611 9.89142C59.4 9.72384 59.3118 9.6774 59.247 9.40978C59.1525 9.02015 58.5794 8.1403 58.0595 7.58674C57.4542 6.94234 56.4932 6.27978 55.6383 5.91765C54.5665 5.46359 54.1141 5.39978 52.7658 5.51228ZM41.6733 41.1924C39.9496 42.2827 38.3046 43.1402 36.2636 44.0126C35.0747 44.5207 34.5649 44.7135 32.2874 45.516C29.5256 46.4891 28.8814 46.8605 28.1445 47.9042C26.9301 49.6243 26.4644 51.8345 26.5827 55.3168C26.6595 57.5755 26.8108 59.106 27.0245 59.7832C27.1392 60.1469 27.7824 60.5999 29.1239 61.2618C33.5501 63.4458 38.8493 64.9511 44.6598 65.6751C47.9897 66.0901 54.3766 66.111 57.6914 65.7179C63.5062 65.0283 68.4366 63.6587 73.2681 61.391C75.4378 60.3726 75.6174 60.1864 75.8571 58.7051C76.0297 57.6384 76.0523 52.6959 75.89 51.5381C75.58 49.3286 74.4055 47.3419 72.8964 46.4747C72.6688 46.3438 71.5456 45.9272 70.4005 45.5488C69.2553 45.1703 67.8647 44.6762 67.31 44.4505C65.9343 43.8908 63.1644 42.515 61.5814 41.6051C60.8625 41.1917 60.2329 40.8696 60.1823 40.8891C60.1317 40.9086 59.9813 41.2704 59.8482 41.693C59.3836 43.1681 55.4661 55.4804 55.1598 56.4287C54.9898 56.9546 54.8216 57.3667 54.7858 57.3445C54.7045 57.294 54.1826 55.8776 53.3416 53.4247L52.6928 51.5327L53.2882 50.581C54.2293 49.0766 54.6274 48.0169 54.6274 47.0168C54.6274 45.6793 53.8747 44.8807 52.4305 44.6859C51.2757 44.5301 49.9535 44.6235 49.3183 44.9057C48.8571 45.1106 48.4438 45.5024 48.2058 45.9604C48.0258 46.307 48.0004 46.4454 48.0045 47.0582C48.0115 48.0974 48.4265 49.1582 49.4886 50.8515L49.9501 51.5873L49.6833 52.3613C49.0469 54.2068 48.1875 56.5938 48.0302 56.9529L47.8596 57.3424L47.7151 57.0308C47.5463 56.6668 46.6769 53.9939 44.9402 48.4996C43.8934 45.1877 42.6945 41.5234 42.4866 41.0006C42.406 40.7979 42.2321 40.8389 41.6733 41.1924Z" fill="url(#paint0_linear_2_89)" fill-opacity="0.5"/>
<defs>
<linearGradient id="paint0_linear_2_89" x1="38" y1="0" x2="38" y2="66" gradientUnits="userSpaceOnUse">
<stop stop-color="#F8F8F8"/>
<stop offset="1" stop-color="#3C3C3C"/>
</linearGradient>
</defs>
</svg>
