<svg width="64" height="65" viewBox="0 0 64 65" fill="none" xmlns="http://www.w3.org/2000/svg">
<path fill-rule="evenodd" clip-rule="evenodd" d="M30.1706 0.0170777C26.6374 0.437277 22.7114 1.9904 19.8421 4.10301C19.1056 4.64531 17.0921 6.62772 16.5174 7.37634C16.0045 8.04447 15.3904 9.21096 15.2072 9.86489C15.0265 10.5104 15.0349 12.2771 15.2213 12.7845C15.3039 13.0098 15.4 13.1575 15.4725 13.1707C15.537 13.1826 16.1472 12.9474 16.8286 12.6483C18.2513 12.0236 18.9325 11.7578 20.1693 11.345C22.7166 10.4949 25.4183 9.89276 28.3018 9.53275C34.2294 8.79262 41.0571 9.94346 47.3932 12.7507C47.7848 12.9242 48.2195 13.0814 48.3592 13.1001C48.6007 13.1323 48.6185 13.1216 48.7205 12.8829C48.918 12.4202 49.0339 11.6566 48.9928 11.089C48.9343 10.2826 48.7248 9.58504 48.2764 8.70356C47.3799 6.94141 45.712 5.17799 43.4944 3.6481C40.8322 1.81142 37.2854 0.469131 34.1372 0.106798C33.5025 0.0337344 30.5853 -0.0322287 30.1706 0.0170777ZM32.9216 0.641869C33.6078 0.813612 34.0765 1.09313 34.6178 1.65315C35.3774 2.4392 35.6345 3.13645 35.5799 4.2632C35.542 5.0452 35.4197 5.42107 35.0018 6.03883C34.6419 6.57111 34.1335 6.9874 33.4253 7.32962C32.9193 7.57423 32.9125 7.57542 32.0692 7.57257C31.3136 7.56998 31.1716 7.55034 30.7599 7.39154C29.5569 6.92741 28.7661 6.03525 28.5103 4.85349C28.2454 3.62932 28.574 2.47523 29.4385 1.59415C30.3474 0.66775 31.6272 0.317893 32.9216 0.641869ZM29.8655 10.4959C26.0712 10.7993 22.4396 11.6434 18.7518 13.079C17.1189 13.7146 16.3161 14.1054 16.4117 14.2181C16.6086 14.4504 19.0328 15.4179 21.1525 16.1101C25.1598 17.4189 28.6596 17.9562 32.6455 17.8747C35.8169 17.8099 38.562 17.3757 41.7993 16.4269C44.1685 15.7325 47.6613 14.3876 47.6639 14.1687C47.6658 14.0156 44.8972 12.8989 42.9181 12.2546C38.535 10.8276 33.7615 10.1844 29.8655 10.4959ZM18.0709 17.0485C18.0529 17.1306 18.0128 17.6834 17.9819 18.2769L17.9257 19.3559L17.5797 19.7037C17.0034 20.2827 16.797 20.8398 16.6815 22.1282C16.4227 25.0145 17.658 28.3497 19.9186 30.8682C20.4193 31.4261 20.6493 31.8353 20.9812 32.7595C22.026 35.6687 23.9042 38.0638 26.4074 39.6792C27.9183 40.6542 29.4995 41.2087 31.2818 41.3885C34.921 41.7557 38.899 39.6178 41.4104 35.9449C41.9371 35.1746 42.6351 33.8062 42.9507 32.9254C43.2801 32.0062 43.5112 31.5482 43.843 31.157C45.0081 29.7832 45.3443 29.316 45.8888 28.3133C46.9755 26.3122 47.4924 24.06 47.3175 22.0882C47.2071 20.8444 46.9943 20.2776 46.4214 19.702L46.0738 19.3528L46.0046 18.1479C45.9591 17.3567 45.9088 16.9344 45.8578 16.9179C45.8151 16.9041 45.0227 17.1351 44.0969 17.4312C40.6131 18.5456 38.6512 19.0007 35.9341 19.325C34.7025 19.472 31.4151 19.527 29.9268 19.4256C26.286 19.1773 22.708 18.45 19.4068 17.2872C18.8009 17.0738 18.2599 16.8992 18.2045 16.8992C18.1491 16.8992 18.089 16.9663 18.0709 17.0485ZM20.3049 37.5294C19.141 37.9639 14.7445 39.7485 13.2531 40.3917C11.519 41.1397 9.68156 42.0331 8.67587 42.6173C6.04467 44.1459 4.10862 46.2725 2.5754 49.318C1.2831 51.8849 0.377081 54.8516 0.0971795 57.4326C-0.0178865 58.4937 -0.0347023 60.1835 0.0678875 60.3711C0.254963 60.7132 1.45953 61.2253 3.62476 61.8832C10.5312 63.9819 21.6553 65.1293 33.7304 64.9884C42.925 64.8811 50.2136 64.212 56.3097 62.9155C59.7277 62.1886 63.1084 61.1214 63.6746 60.5906C63.9905 60.2943 64.0294 60.0662 63.9846 58.7764C63.8765 55.6686 62.9597 52.3291 61.3562 49.203C60.4106 47.3594 59.4839 46.0533 58.2774 44.8637C56.0599 42.6773 53.3102 41.2934 43.7698 37.5621C43.3619 37.4026 42.9804 37.2733 42.9223 37.2747C42.8039 37.2777 42.1219 38.0898 41.7288 38.6956C41.297 39.3611 40.9998 40.0111 38.6932 45.335C37.9658 47.0139 37.2586 48.6265 37.1217 48.9185L36.8729 49.4494L36.5519 49.1099C36.2476 48.7882 35.4632 47.8157 33.0922 44.8207C32.5215 44.0999 32.0307 43.51 32.0014 43.51C31.9721 43.51 31.4872 44.0924 30.9238 44.8041C30.3603 45.5158 29.4443 46.673 28.888 47.3756C28.3317 48.0781 27.7105 48.8318 27.5075 49.0503L27.1384 49.4474L27.001 49.183C26.9254 49.0375 26.4356 47.933 25.9126 46.7286C25.3897 45.5241 24.6085 43.7248 24.1767 42.73C23.1947 40.4677 22.4723 38.9395 22.1613 38.4666C21.7914 37.904 21.2282 37.2719 21.0992 37.2741C21.0353 37.2753 20.6779 37.3901 20.3049 37.5294ZM18.3864 40.192C18.7317 40.63 19.0451 40.9883 19.0827 40.9883C19.1204 40.9883 19.558 40.8512 20.0553 40.6836C20.5525 40.516 20.9745 40.3938 20.9931 40.412C21.0407 40.4587 20.879 40.7488 20.4079 41.4619C20.1834 41.8015 19.9998 42.1151 19.9998 42.1586C19.9998 42.2021 20.1764 42.4717 20.3921 42.7577C20.8144 43.3176 21.0847 43.7275 21.0847 43.8084C21.0847 43.8822 20.6211 43.7974 20.0187 43.6134C19.7286 43.5248 19.3845 43.4342 19.2539 43.4121C19.0231 43.3731 19.0093 43.3832 18.7454 43.7876C18.2553 44.5387 17.8898 44.9886 17.8229 44.9232C17.7879 44.889 17.7401 44.4273 17.7167 43.8973L17.6742 42.9337L17.091 42.749C16.1974 42.466 15.7959 42.3114 15.7959 42.2506C15.7959 42.1951 16.402 41.9381 17.2118 41.6503L17.6445 41.4964L17.6104 40.7408C17.5737 39.9272 17.6097 39.3956 17.7015 39.3956C17.7329 39.3956 18.0412 39.754 18.3864 40.192ZM46.3865 39.6777C46.3921 39.8328 46.3888 40.3057 46.379 40.7286L46.3612 41.4976L46.7925 41.6508C47.5872 41.9332 48.2069 42.1948 48.2069 42.2476C48.2069 42.311 47.7016 42.5081 46.9117 42.7529L46.3285 42.9337L46.2864 43.8889C46.2632 44.4143 46.2254 44.8739 46.2024 44.9103C46.1378 45.0126 45.9892 44.8607 45.6131 44.3083C44.9484 43.3322 44.9178 43.3205 43.8673 43.6428C43.1062 43.8762 42.9859 43.8862 42.9859 43.7161C42.9859 43.6063 43.3675 43.0395 43.9109 42.3421L44.0805 42.1247L43.6418 41.5398C43.1815 40.9261 42.9324 40.4876 43.0041 40.4175C43.0275 40.3945 43.4774 40.5211 44.0038 40.6986L44.961 41.0215L45.0752 40.8825C45.1381 40.8061 45.4265 40.4403 45.7162 40.0696C46.0059 39.6989 46.2728 39.3956 46.3095 39.3956C46.3462 39.3956 46.3808 39.5226 46.3865 39.6777ZM51.9701 44.1281L52.0379 45.1344L52.847 45.4151C53.292 45.5695 53.7002 45.7388 53.7539 45.7915C53.839 45.8748 53.8256 45.9002 53.6506 45.9888C53.54 46.0448 53.1376 46.1813 52.7564 46.2921C52.3751 46.403 52.0347 46.511 51.9997 46.5321C51.9647 46.5532 51.9358 46.9495 51.9353 47.4127C51.9338 48.7486 51.8973 48.7762 51.2486 47.9324C50.6554 47.1606 50.5336 47.0272 50.422 47.0272C50.3675 47.0272 49.937 47.1353 49.4652 47.2674C48.9934 47.3995 48.5899 47.4904 48.5684 47.4695C48.5244 47.4263 48.7249 47.0982 49.2573 46.3423C49.4919 46.0092 49.6082 45.7834 49.582 45.7118C49.5595 45.6506 49.3324 45.2884 49.0774 44.9071C48.8224 44.5258 48.6137 44.1725 48.6137 44.1221C48.6137 44.0005 48.85 44.0526 49.789 44.3812C50.193 44.5225 50.5439 44.6382 50.5688 44.6381C50.5937 44.6381 50.8886 44.2833 51.2242 43.8497C51.5599 43.4161 51.8497 43.0749 51.8684 43.0916C51.887 43.1083 51.9328 43.5747 51.9701 44.1281ZM12.7456 43.8253C13.0552 44.2176 13.3316 44.5644 13.3597 44.5959C13.3879 44.6274 13.8197 44.5155 14.3193 44.347C14.8188 44.1787 15.2639 44.0409 15.3083 44.0409C15.4656 44.0409 15.3831 44.2201 14.8805 44.97C14.6008 45.3873 14.3719 45.7473 14.3719 45.7702C14.3719 45.793 14.5382 46.0479 14.7415 46.3365C15.2782 47.0987 15.4785 47.4263 15.4343 47.4695C15.4129 47.4904 15.0094 47.3995 14.5376 47.2674C14.0658 47.1353 13.6278 47.0272 13.5643 47.0272C13.4967 47.0272 13.226 47.3184 12.911 47.7301C12.6152 48.1168 12.3228 48.4595 12.2612 48.4917C12.0994 48.5765 12.0686 48.4005 12.0675 47.3877L12.0666 46.5204L11.4054 46.3379C11.0418 46.2375 10.6089 46.0969 10.4434 46.0255C10.1756 45.9098 10.1538 45.8845 10.2445 45.7957C10.3007 45.7408 10.7107 45.5694 11.1557 45.415L11.9648 45.1342L12.0065 44.3387C12.0294 43.9012 12.0523 43.4462 12.0573 43.3275C12.0624 43.2089 12.0927 43.1119 12.1245 43.1119C12.1564 43.1119 12.4359 43.4329 12.7456 43.8253Z" fill="#0B8F98"/>
<path fill-rule="evenodd" clip-rule="evenodd" d="M30.1706 0.0170777C26.6374 0.437277 22.7114 1.9904 19.8421 4.10301C19.1056 4.64531 17.0921 6.62772 16.5174 7.37634C16.0045 8.04447 15.3904 9.21096 15.2072 9.86489C15.0265 10.5104 15.0349 12.2771 15.2213 12.7845C15.3039 13.0098 15.4 13.1575 15.4725 13.1707C15.537 13.1826 16.1472 12.9474 16.8286 12.6483C18.2513 12.0236 18.9325 11.7578 20.1693 11.345C22.7166 10.4949 25.4183 9.89276 28.3018 9.53275C34.2294 8.79262 41.0571 9.94346 47.3932 12.7507C47.7848 12.9242 48.2195 13.0814 48.3592 13.1001C48.6007 13.1323 48.6185 13.1216 48.7205 12.8829C48.918 12.4202 49.0339 11.6566 48.9928 11.089C48.9343 10.2826 48.7248 9.58504 48.2764 8.70356C47.3799 6.94141 45.712 5.17799 43.4944 3.6481C40.8322 1.81142 37.2854 0.469131 34.1372 0.106798C33.5025 0.0337344 30.5853 -0.0322287 30.1706 0.0170777ZM32.9216 0.641869C33.6078 0.813612 34.0765 1.09313 34.6178 1.65315C35.3774 2.4392 35.6345 3.13645 35.5799 4.2632C35.542 5.0452 35.4197 5.42107 35.0018 6.03883C34.6419 6.57111 34.1335 6.9874 33.4253 7.32962C32.9193 7.57423 32.9125 7.57542 32.0692 7.57257C31.3136 7.56998 31.1716 7.55034 30.7599 7.39154C29.5569 6.92741 28.7661 6.03525 28.5103 4.85349C28.2454 3.62932 28.574 2.47523 29.4385 1.59415C30.3474 0.66775 31.6272 0.317893 32.9216 0.641869ZM29.8655 10.4959C26.0712 10.7993 22.4396 11.6434 18.7518 13.079C17.1189 13.7146 16.3161 14.1054 16.4117 14.2181C16.6086 14.4504 19.0328 15.4179 21.1525 16.1101C25.1598 17.4189 28.6596 17.9562 32.6455 17.8747C35.8169 17.8099 38.562 17.3757 41.7993 16.4269C44.1685 15.7325 47.6613 14.3876 47.6639 14.1687C47.6658 14.0156 44.8972 12.8989 42.9181 12.2546C38.535 10.8276 33.7615 10.1844 29.8655 10.4959ZM18.0709 17.0485C18.0529 17.1306 18.0128 17.6834 17.9819 18.2769L17.9257 19.3559L17.5797 19.7037C17.0034 20.2827 16.797 20.8398 16.6815 22.1282C16.4227 25.0145 17.658 28.3497 19.9186 30.8682C20.4193 31.4261 20.6493 31.8353 20.9812 32.7595C22.026 35.6687 23.9042 38.0638 26.4074 39.6792C27.9183 40.6542 29.4995 41.2087 31.2818 41.3885C34.921 41.7557 38.899 39.6178 41.4104 35.9449C41.9371 35.1746 42.6351 33.8062 42.9507 32.9254C43.2801 32.0062 43.5112 31.5482 43.843 31.157C45.0081 29.7832 45.3443 29.316 45.8888 28.3133C46.9755 26.3122 47.4924 24.06 47.3175 22.0882C47.2071 20.8444 46.9943 20.2776 46.4214 19.702L46.0738 19.3528L46.0046 18.1479C45.9591 17.3567 45.9088 16.9344 45.8578 16.9179C45.8151 16.9041 45.0227 17.1351 44.0969 17.4312C40.6131 18.5456 38.6512 19.0007 35.9341 19.325C34.7025 19.472 31.4151 19.527 29.9268 19.4256C26.286 19.1773 22.708 18.45 19.4068 17.2872C18.8009 17.0738 18.2599 16.8992 18.2045 16.8992C18.1491 16.8992 18.089 16.9663 18.0709 17.0485ZM20.3049 37.5294C19.141 37.9639 14.7445 39.7485 13.2531 40.3917C11.519 41.1397 9.68156 42.0331 8.67587 42.6173C6.04467 44.1459 4.10862 46.2725 2.5754 49.318C1.2831 51.8849 0.377081 54.8516 0.0971795 57.4326C-0.0178865 58.4937 -0.0347023 60.1835 0.0678875 60.3711C0.254963 60.7132 1.45953 61.2253 3.62476 61.8832C10.5312 63.9819 21.6553 65.1293 33.7304 64.9884C42.925 64.8811 50.2136 64.212 56.3097 62.9155C59.7277 62.1886 63.1084 61.1214 63.6746 60.5906C63.9905 60.2943 64.0294 60.0662 63.9846 58.7764C63.8765 55.6686 62.9597 52.3291 61.3562 49.203C60.4106 47.3594 59.4839 46.0533 58.2774 44.8637C56.0599 42.6773 53.3102 41.2934 43.7698 37.5621C43.3619 37.4026 42.9804 37.2733 42.9223 37.2747C42.8039 37.2777 42.1219 38.0898 41.7288 38.6956C41.297 39.3611 40.9998 40.0111 38.6932 45.335C37.9658 47.0139 37.2586 48.6265 37.1217 48.9185L36.8729 49.4494L36.5519 49.1099C36.2476 48.7882 35.4632 47.8157 33.0922 44.8207C32.5215 44.0999 32.0307 43.51 32.0014 43.51C31.9721 43.51 31.4872 44.0924 30.9238 44.8041C30.3603 45.5158 29.4443 46.673 28.888 47.3756C28.3317 48.0781 27.7105 48.8318 27.5075 49.0503L27.1384 49.4474L27.001 49.183C26.9254 49.0375 26.4356 47.933 25.9126 46.7286C25.3897 45.5241 24.6085 43.7248 24.1767 42.73C23.1947 40.4677 22.4723 38.9395 22.1613 38.4666C21.7914 37.904 21.2282 37.2719 21.0992 37.2741C21.0353 37.2753 20.6779 37.3901 20.3049 37.5294ZM18.3864 40.192C18.7317 40.63 19.0451 40.9883 19.0827 40.9883C19.1204 40.9883 19.558 40.8512 20.0553 40.6836C20.5525 40.516 20.9745 40.3938 20.9931 40.412C21.0407 40.4587 20.879 40.7488 20.4079 41.4619C20.1834 41.8015 19.9998 42.1151 19.9998 42.1586C19.9998 42.2021 20.1764 42.4717 20.3921 42.7577C20.8144 43.3176 21.0847 43.7275 21.0847 43.8084C21.0847 43.8822 20.6211 43.7974 20.0187 43.6134C19.7286 43.5248 19.3845 43.4342 19.2539 43.4121C19.0231 43.3731 19.0093 43.3832 18.7454 43.7876C18.2553 44.5387 17.8898 44.9886 17.8229 44.9232C17.7879 44.889 17.7401 44.4273 17.7167 43.8973L17.6742 42.9337L17.091 42.749C16.1974 42.466 15.7959 42.3114 15.7959 42.2506C15.7959 42.1951 16.402 41.9381 17.2118 41.6503L17.6445 41.4964L17.6104 40.7408C17.5737 39.9272 17.6097 39.3956 17.7015 39.3956C17.7329 39.3956 18.0412 39.754 18.3864 40.192ZM46.3865 39.6777C46.3921 39.8328 46.3888 40.3057 46.379 40.7286L46.3612 41.4976L46.7925 41.6508C47.5872 41.9332 48.2069 42.1948 48.2069 42.2476C48.2069 42.311 47.7016 42.5081 46.9117 42.7529L46.3285 42.9337L46.2864 43.8889C46.2632 44.4143 46.2254 44.8739 46.2024 44.9103C46.1378 45.0126 45.9892 44.8607 45.6131 44.3083C44.9484 43.3322 44.9178 43.3205 43.8673 43.6428C43.1062 43.8762 42.9859 43.8862 42.9859 43.7161C42.9859 43.6063 43.3675 43.0395 43.9109 42.3421L44.0805 42.1247L43.6418 41.5398C43.1815 40.9261 42.9324 40.4876 43.0041 40.4175C43.0275 40.3945 43.4774 40.5211 44.0038 40.6986L44.961 41.0215L45.0752 40.8825C45.1381 40.8061 45.4265 40.4403 45.7162 40.0696C46.0059 39.6989 46.2728 39.3956 46.3095 39.3956C46.3462 39.3956 46.3808 39.5226 46.3865 39.6777ZM51.9701 44.1281L52.0379 45.1344L52.847 45.4151C53.292 45.5695 53.7002 45.7388 53.7539 45.7915C53.839 45.8748 53.8256 45.9002 53.6506 45.9888C53.54 46.0448 53.1376 46.1813 52.7564 46.2921C52.3751 46.403 52.0347 46.511 51.9997 46.5321C51.9647 46.5532 51.9358 46.9495 51.9353 47.4127C51.9338 48.7486 51.8973 48.7762 51.2486 47.9324C50.6554 47.1606 50.5336 47.0272 50.422 47.0272C50.3675 47.0272 49.937 47.1353 49.4652 47.2674C48.9934 47.3995 48.5899 47.4904 48.5684 47.4695C48.5244 47.4263 48.7249 47.0982 49.2573 46.3423C49.4919 46.0092 49.6082 45.7834 49.582 45.7118C49.5595 45.6506 49.3324 45.2884 49.0774 44.9071C48.8224 44.5258 48.6137 44.1725 48.6137 44.1221C48.6137 44.0005 48.85 44.0526 49.789 44.3812C50.193 44.5225 50.5439 44.6382 50.5688 44.6381C50.5937 44.6381 50.8886 44.2833 51.2242 43.8497C51.5599 43.4161 51.8497 43.0749 51.8684 43.0916C51.887 43.1083 51.9328 43.5747 51.9701 44.1281ZM12.7456 43.8253C13.0552 44.2176 13.3316 44.5644 13.3597 44.5959C13.3879 44.6274 13.8197 44.5155 14.3193 44.347C14.8188 44.1787 15.2639 44.0409 15.3083 44.0409C15.4656 44.0409 15.3831 44.2201 14.8805 44.97C14.6008 45.3873 14.3719 45.7473 14.3719 45.7702C14.3719 45.793 14.5382 46.0479 14.7415 46.3365C15.2782 47.0987 15.4785 47.4263 15.4343 47.4695C15.4129 47.4904 15.0094 47.3995 14.5376 47.2674C14.0658 47.1353 13.6278 47.0272 13.5643 47.0272C13.4967 47.0272 13.226 47.3184 12.911 47.7301C12.6152 48.1168 12.3228 48.4595 12.2612 48.4917C12.0994 48.5765 12.0686 48.4005 12.0675 47.3877L12.0666 46.5204L11.4054 46.3379C11.0418 46.2375 10.6089 46.0969 10.4434 46.0255C10.1756 45.9098 10.1538 45.8845 10.2445 45.7957C10.3007 45.7408 10.7107 45.5694 11.1557 45.415L11.9648 45.1342L12.0065 44.3387C12.0294 43.9012 12.0523 43.4462 12.0573 43.3275C12.0624 43.2089 12.0927 43.1119 12.1245 43.1119C12.1564 43.1119 12.4359 43.4329 12.7456 43.8253Z" fill="url(#paint0_linear_2_101)" fill-opacity="0.5"/>
<defs>
<linearGradient id="paint0_linear_2_101" x1="32" y1="0" x2="32" y2="65" gradientUnits="userSpaceOnUse">
<stop stop-color="#F8F8F8"/>
<stop offset="1" stop-color="#3C3C3C"/>
</linearGradient>
</defs>
</svg>
