<svg width="59" height="63" viewBox="0 0 59 63" fill="none" xmlns="http://www.w3.org/2000/svg">
<path fill-rule="evenodd" clip-rule="evenodd" d="M40.9867 0.108365C38.2388 0.43191 35.3636 1.67116 33.1188 3.49961C32.4674 4.03019 32.0807 4.26752 31.9431 4.22085C31.8303 4.18267 30.0552 3.40761 27.9981 2.49843C25.9412 1.58926 24.2214 0.883912 24.1763 0.931083C24.1313 0.978254 23.6985 2.04151 23.2146 3.29406C22.7308 4.54648 22.3101 5.634 22.28 5.71061C22.2418 5.80741 22.0431 5.77576 21.6266 5.60653C19.9345 4.91868 17.6385 4.66041 15.7006 4.93986C9.78376 5.79312 5.24713 10.758 4.58433 17.1055C4.38359 19.0274 4.61179 21.1895 5.19567 22.8989L5.47717 23.7227L4.94601 23.9656C4.6539 24.0991 3.63612 24.5502 2.68433 24.9681C1.73254 25.386 0.915959 25.7666 0.869696 25.814C0.823433 25.8613 1.46488 27.6443 2.29519 29.7761C3.12538 31.9079 3.85347 33.7962 3.91312 33.9722C4.00957 34.2571 3.93123 34.4204 3.20395 35.4501C2.28758 36.7478 1.18027 39.0436 0.740137 40.5583C-0.704508 45.5305 -0.0154117 50.8436 2.64153 55.2174C3.65862 56.8918 5.65749 59.0544 7.17424 60.1214C11.7029 63.3076 17.2461 63.8802 22.2861 61.6823C26.1469 59.9987 29.2725 56.7242 30.939 52.617C34.2961 44.3434 31.1001 34.7087 23.609 30.5199C21.8262 29.523 19.8738 28.8984 17.6085 28.6004L17.0733 28.5299L15.6069 24.7481C14.8004 22.6682 14.0548 20.7629 13.9502 20.514L13.7597 20.0615L11.2885 21.1602C9.92936 21.7644 8.80717 22.2453 8.79482 22.2285C8.78248 22.2118 8.69111 21.921 8.59189 21.5823C7.75893 18.7381 8.12903 15.6896 9.60864 13.2073C10.4639 11.7725 12.1629 10.207 13.584 9.54437C15.5976 8.60539 18.1508 8.4592 20.2203 9.16442C20.5376 9.27256 20.8098 9.37158 20.8252 9.38451C20.8407 9.39756 20.4339 10.4846 19.9213 11.8003C19.4086 13.1161 18.9455 14.3105 18.892 14.4546C18.8003 14.7015 19.0224 14.8173 22.7575 16.4689L26.7203 18.2212L26.7938 18.8549C27.0671 21.2105 27.5791 23.0772 28.4708 24.9692C32.0424 32.5472 40.323 36.2344 47.8466 33.597C50.8409 32.5475 53.3243 30.7592 55.2813 28.2436C60.5402 21.4838 60.183 11.5631 54.4534 5.24432C50.9571 1.38838 46.0406 -0.486628 40.9867 0.108365ZM44.9827 8.40599C47.7085 9.15124 49.9762 11.3823 50.911 14.2385C52.3292 18.5715 50.4888 23.3545 46.6398 25.3392C45.2518 26.0549 44.4438 26.248 42.8326 26.249C41.3799 26.2499 40.8905 26.1533 39.66 25.6226C36.3298 24.1864 34.1974 20.6062 34.3922 16.779C34.4852 14.954 34.9596 13.494 35.9731 11.9141C37.0924 10.1693 39.1755 8.72363 41.1021 8.35476C41.4828 8.28185 41.9241 8.19773 42.0827 8.1678C42.6093 8.06865 44.2381 8.20241 44.9827 8.40599ZM29.0486 9.20654C30.3454 10.1923 29.6697 12.4493 28.0783 12.4472C27.0864 12.4458 26.3938 11.7155 26.393 10.6699C26.3919 9.19583 27.924 8.35155 29.0486 9.20654ZM10.8987 28.4128C11.9622 29.105 11.885 30.9802 10.7697 31.5453C9.6714 32.1016 8.43891 31.3878 8.31835 30.1252C8.17991 28.674 9.72492 27.6487 10.8987 28.4128ZM18.429 37.0422C21.2954 37.9039 23.4034 40.1474 24.3323 43.3246C24.7158 44.6362 24.7133 46.9146 24.3269 48.2467C23.3159 51.7326 20.9331 54.0246 17.5921 54.725C16.7195 54.908 16.4126 54.918 15.3774 54.7973C12.8516 54.503 10.7928 53.2986 9.39197 51.2962C8.12096 49.4793 7.64748 47.9784 7.65314 45.7835C7.65729 44.1353 7.92702 42.9146 8.58047 41.5873C9.80626 39.0969 12.106 37.2973 14.713 36.7883C15.5663 36.6218 17.4608 36.7512 18.429 37.0422Z" fill="#0B8F98"/>
<path fill-rule="evenodd" clip-rule="evenodd" d="M40.9867 0.108365C38.2388 0.43191 35.3636 1.67116 33.1188 3.49961C32.4674 4.03019 32.0807 4.26752 31.9431 4.22085C31.8303 4.18267 30.0552 3.40761 27.9981 2.49843C25.9412 1.58926 24.2214 0.883912 24.1763 0.931083C24.1313 0.978254 23.6985 2.04151 23.2146 3.29406C22.7308 4.54648 22.3101 5.634 22.28 5.71061C22.2418 5.80741 22.0431 5.77576 21.6266 5.60653C19.9345 4.91868 17.6385 4.66041 15.7006 4.93986C9.78376 5.79312 5.24713 10.758 4.58433 17.1055C4.38359 19.0274 4.61179 21.1895 5.19567 22.8989L5.47717 23.7227L4.94601 23.9656C4.6539 24.0991 3.63612 24.5502 2.68433 24.9681C1.73254 25.386 0.915959 25.7666 0.869696 25.814C0.823433 25.8613 1.46488 27.6443 2.29519 29.7761C3.12538 31.9079 3.85347 33.7962 3.91312 33.9722C4.00957 34.2571 3.93123 34.4204 3.20395 35.4501C2.28758 36.7478 1.18027 39.0436 0.740137 40.5583C-0.704508 45.5305 -0.0154117 50.8436 2.64153 55.2174C3.65862 56.8918 5.65749 59.0544 7.17424 60.1214C11.7029 63.3076 17.2461 63.8802 22.2861 61.6823C26.1469 59.9987 29.2725 56.7242 30.939 52.617C34.2961 44.3434 31.1001 34.7087 23.609 30.5199C21.8262 29.523 19.8738 28.8984 17.6085 28.6004L17.0733 28.5299L15.6069 24.7481C14.8004 22.6682 14.0548 20.7629 13.9502 20.514L13.7597 20.0615L11.2885 21.1602C9.92936 21.7644 8.80717 22.2453 8.79482 22.2285C8.78248 22.2118 8.69111 21.921 8.59189 21.5823C7.75893 18.7381 8.12903 15.6896 9.60864 13.2073C10.4639 11.7725 12.1629 10.207 13.584 9.54437C15.5976 8.60539 18.1508 8.4592 20.2203 9.16442C20.5376 9.27256 20.8098 9.37158 20.8252 9.38451C20.8407 9.39756 20.4339 10.4846 19.9213 11.8003C19.4086 13.1161 18.9455 14.3105 18.892 14.4546C18.8003 14.7015 19.0224 14.8173 22.7575 16.4689L26.7203 18.2212L26.7938 18.8549C27.0671 21.2105 27.5791 23.0772 28.4708 24.9692C32.0424 32.5472 40.323 36.2344 47.8466 33.597C50.8409 32.5475 53.3243 30.7592 55.2813 28.2436C60.5402 21.4838 60.183 11.5631 54.4534 5.24432C50.9571 1.38838 46.0406 -0.486628 40.9867 0.108365ZM44.9827 8.40599C47.7085 9.15124 49.9762 11.3823 50.911 14.2385C52.3292 18.5715 50.4888 23.3545 46.6398 25.3392C45.2518 26.0549 44.4438 26.248 42.8326 26.249C41.3799 26.2499 40.8905 26.1533 39.66 25.6226C36.3298 24.1864 34.1974 20.6062 34.3922 16.779C34.4852 14.954 34.9596 13.494 35.9731 11.9141C37.0924 10.1693 39.1755 8.72363 41.1021 8.35476C41.4828 8.28185 41.9241 8.19773 42.0827 8.1678C42.6093 8.06865 44.2381 8.20241 44.9827 8.40599ZM29.0486 9.20654C30.3454 10.1923 29.6697 12.4493 28.0783 12.4472C27.0864 12.4458 26.3938 11.7155 26.393 10.6699C26.3919 9.19583 27.924 8.35155 29.0486 9.20654ZM10.8987 28.4128C11.9622 29.105 11.885 30.9802 10.7697 31.5453C9.6714 32.1016 8.43891 31.3878 8.31835 30.1252C8.17991 28.674 9.72492 27.6487 10.8987 28.4128ZM18.429 37.0422C21.2954 37.9039 23.4034 40.1474 24.3323 43.3246C24.7158 44.6362 24.7133 46.9146 24.3269 48.2467C23.3159 51.7326 20.9331 54.0246 17.5921 54.725C16.7195 54.908 16.4126 54.918 15.3774 54.7973C12.8516 54.503 10.7928 53.2986 9.39197 51.2962C8.12096 49.4793 7.64748 47.9784 7.65314 45.7835C7.65729 44.1353 7.92702 42.9146 8.58047 41.5873C9.80626 39.0969 12.106 37.2973 14.713 36.7883C15.5663 36.6218 17.4608 36.7512 18.429 37.0422Z" fill="url(#paint0_linear_2_95)" fill-opacity="0.5"/>
<defs>
<linearGradient id="paint0_linear_2_95" x1="29.5" y1="0" x2="29.5" y2="63" gradientUnits="userSpaceOnUse">
<stop stop-color="#F8F8F8"/>
<stop offset="1" stop-color="#3C3C3C"/>
</linearGradient>
</defs>
</svg>
