<svg width="22" height="22" viewBox="0 0 22 22" fill="none" xmlns="http://www.w3.org/2000/svg">
<path d="M2.13324 2.51267C0.0743017 4.90969 0.106893 5.72434 2.45339 10.5189C4.381 14.459 7.54753 17.6232 11.4905 19.5495C16.2884 21.8943 17.1036 21.9268 19.5024 19.8694C20.6229 18.9087 21.5393 17.7908 21.5393 17.3852C21.5393 16.3306 17.9932 12.9293 16.8933 12.9293C16.3843 12.9293 15.49 13.5758 14.9053 14.3661C13.3524 16.4647 12.1964 16.1984 9.00163 13.0059C5.80682 9.8134 5.54035 8.65824 7.6405 7.10652C8.4313 6.52223 9.07831 5.62855 9.07831 5.11994C9.07831 4.0208 5.67455 0.477238 4.6192 0.477238C4.21326 0.477238 3.09465 1.39342 2.13324 2.51267Z" fill="#CECECE"/>
</svg>
