<svg width="21" height="30" viewBox="0 0 21 30" fill="none" xmlns="http://www.w3.org/2000/svg">
<path d="M9.77232 0.0331478C6.51211 0.266832 3.57272 1.94512 1.75185 4.62189C0.641993 6.24919 0.0653858 8.00821 0.00902571 9.93718C-0.0169866 10.7912 0.0133611 11.1056 0.199783 11.9256C0.893445 15.0103 3.77648 20.2533 8.12487 26.3547C9.22173 27.8927 10.4573 29.5285 10.518 29.5158C10.5657 29.5073 11.4588 28.3261 12.3649 27.077C13.4097 25.6366 13.3794 25.6749 14.2898 24.3365C18.0963 18.7408 20.264 14.5472 20.9013 11.5687C20.988 11.1651 21.001 10.9781 21.001 10.1879C21.001 9.24462 20.949 8.80274 20.7582 7.97846C20.5024 6.89501 19.9085 5.56088 19.2495 4.59639C17.563 2.11933 14.8274 0.458033 11.8316 0.0926323C11.216 0.0161533 10.3446 -0.00509262 9.77232 0.0331478ZM11.6365 1.26956C12.1611 1.32904 12.9025 1.4905 13.4661 1.6732C14.0383 1.8559 15.1048 2.36576 15.6034 2.69292C17.6627 4.03555 19.1064 6.10473 19.6093 8.42459C19.9171 9.87344 19.8694 10.9739 19.4359 12.4185C18.4908 15.5414 15.5037 20.6952 11.2073 26.6096C10.8518 27.0982 10.5484 27.5188 10.531 27.5358C10.4877 27.5868 9.01363 25.5474 7.68266 23.5929C4.1103 18.3414 1.98163 14.305 1.36167 11.6112C1.2186 10.9909 1.17091 10.0986 1.24895 9.37633C1.5741 6.31292 3.48167 3.60217 6.29534 2.1958C7.96013 1.36303 9.72897 1.05712 11.6365 1.26956Z" fill="#0B8F98"/>
<path d="M9.77232 0.0331478C6.51211 0.266832 3.57272 1.94512 1.75185 4.62189C0.641993 6.24919 0.0653858 8.00821 0.00902571 9.93718C-0.0169866 10.7912 0.0133611 11.1056 0.199783 11.9256C0.893445 15.0103 3.77648 20.2533 8.12487 26.3547C9.22173 27.8927 10.4573 29.5285 10.518 29.5158C10.5657 29.5073 11.4588 28.3261 12.3649 27.077C13.4097 25.6366 13.3794 25.6749 14.2898 24.3365C18.0963 18.7408 20.264 14.5472 20.9013 11.5687C20.988 11.1651 21.001 10.9781 21.001 10.1879C21.001 9.24462 20.949 8.80274 20.7582 7.97846C20.5024 6.89501 19.9085 5.56088 19.2495 4.59639C17.563 2.11933 14.8274 0.458033 11.8316 0.0926323C11.216 0.0161533 10.3446 -0.00509262 9.77232 0.0331478ZM11.6365 1.26956C12.1611 1.32904 12.9025 1.4905 13.4661 1.6732C14.0383 1.8559 15.1048 2.36576 15.6034 2.69292C17.6627 4.03555 19.1064 6.10473 19.6093 8.42459C19.9171 9.87344 19.8694 10.9739 19.4359 12.4185C18.4908 15.5414 15.5037 20.6952 11.2073 26.6096C10.8518 27.0982 10.5484 27.5188 10.531 27.5358C10.4877 27.5868 9.01363 25.5474 7.68266 23.5929C4.1103 18.3414 1.98163 14.305 1.36167 11.6112C1.2186 10.9909 1.17091 10.0986 1.24895 9.37633C1.5741 6.31292 3.48167 3.60217 6.29534 2.1958C7.96013 1.36303 9.72897 1.05712 11.6365 1.26956Z" fill="url(#paint0_linear_2_35)" fill-opacity="0.5"/>
<path d="M11.6365 1.26956C12.1611 1.32904 12.9025 1.4905 13.4661 1.6732C14.0383 1.8559 15.1048 2.36576 15.6034 2.69292C17.6627 4.03555 19.1064 6.10473 19.6093 8.42459C19.9171 9.87344 19.8694 10.9739 19.4359 12.4185C18.4908 15.5414 15.5037 20.6952 11.2073 26.6096C10.8518 27.0982 10.5484 27.5188 10.531 27.5358C10.4877 27.5868 9.01363 25.5474 7.68266 23.5929C4.1103 18.3414 1.98163 14.305 1.36167 11.6112C1.2186 10.9909 1.17091 10.0986 1.24895 9.37633C1.5741 6.31292 3.48167 3.60217 6.29534 2.1958C7.96013 1.36303 9.72897 1.05712 11.6365 1.26956Z" fill="#0B8F98"/>
<path d="M11.6365 1.26956C12.1611 1.32904 12.9025 1.4905 13.4661 1.6732C14.0383 1.8559 15.1048 2.36576 15.6034 2.69292C17.6627 4.03555 19.1064 6.10473 19.6093 8.42459C19.9171 9.87344 19.8694 10.9739 19.4359 12.4185C18.4908 15.5414 15.5037 20.6952 11.2073 26.6096C10.8518 27.0982 10.5484 27.5188 10.531 27.5358C10.4877 27.5868 9.01363 25.5474 7.68266 23.5929C4.1103 18.3414 1.98163 14.305 1.36167 11.6112C1.2186 10.9909 1.17091 10.0986 1.24895 9.37633C1.5741 6.31292 3.48167 3.60217 6.29534 2.1958C7.96013 1.36303 9.72897 1.05712 11.6365 1.26956Z" fill="url(#paint1_linear_2_35)" fill-opacity="0.5"/>
<path fill-rule="evenodd" clip-rule="evenodd" d="M10.0957 5.78497C8.03241 5.98507 6.37051 7.49226 6.01655 9.4848C5.57626 11.9499 7.28132 14.3001 9.7979 14.7046C10.3029 14.7855 10.6483 14.7855 11.1749 14.7046C12.172 14.5556 13.044 14.1128 13.7476 13.3975C14.68 12.4523 15.1203 11.2985 15.0469 10.0085C14.926 7.84563 13.1692 6.0021 11.0454 5.80626C10.4799 5.75516 10.4152 5.75516 10.0957 5.78497ZM13.4843 8.78656C13.0569 7.93504 12.2713 7.30918 11.326 7.0665C10.877 6.94729 10.1216 6.94729 9.68566 7.06224C8.56335 7.35176 7.71298 8.13515 7.32448 9.2336C7.19067 9.61679 7.18203 9.67213 7.18203 10.2341C7.18203 10.6769 7.20362 10.9026 7.25973 11.1069C7.43671 11.7456 7.88996 12.4353 8.40363 12.8355C8.71011 13.0739 9.33602 13.3805 9.70725 13.4784C10.1346 13.5891 10.9288 13.5806 11.3605 13.4571C12.4871 13.1421 13.303 12.3714 13.6915 11.256C13.8167 10.9026 13.8253 10.8302 13.8296 10.298C13.8296 9.61679 13.7692 9.34856 13.4843 8.78656Z" fill="white"/>
<defs>
<linearGradient id="paint0_linear_2_35" x1="10.501" y1="29.5159" x2="10.501" y2="0.0145683" gradientUnits="userSpaceOnUse">
<stop stop-color="#F8F8F8"/>
<stop offset="1" stop-color="#3C3C3C"/>
</linearGradient>
<linearGradient id="paint1_linear_2_35" x1="10.501" y1="29.5159" x2="10.501" y2="0.0145683" gradientUnits="userSpaceOnUse">
<stop stop-color="#F8F8F8"/>
<stop offset="1" stop-color="#3C3C3C"/>
</linearGradient>
</defs>
</svg>
