<svg width="28" height="20" viewBox="0 0 28 20" fill="none" xmlns="http://www.w3.org/2000/svg">
<path d="M9.57787 10.2479L0.933333 18.5372V1.59209L9.57787 10.2479Z" fill="#0B8F98"/>
<path d="M9.57787 10.2479L0.933333 18.5372V1.59209L9.57787 10.2479Z" fill="url(#paint0_linear_2_40)" fill-opacity="0.5"/>
<path d="M10.2359 10.907L12.8133 13.4879C13.1441 13.7953 13.5688 13.9498 13.9953 13.9498C14.4261 13.9498 14.8587 13.7921 15.1998 13.4753L17.7646 10.907L26.2752 19.0698H1.72013L10.2359 10.907Z" fill="#0B8F98"/>
<path d="M10.2359 10.907L12.8133 13.4879C13.1441 13.7953 13.5688 13.9498 13.9953 13.9498C14.4261 13.9498 14.8587 13.7921 15.1998 13.4753L17.7646 10.907L26.2752 19.0698H1.72013L10.2359 10.907Z" fill="url(#paint1_linear_2_40)" fill-opacity="0.5"/>
<path d="M17.0917 10.2623L14.5502 12.8074C14.2413 13.0935 13.7578 13.093 13.4619 12.8195L10.9079 10.2623L10.9303 10.2405L1.70193 0.930233H26.3041L17.0693 10.2409L17.0917 10.2623Z" fill="#0B8F98"/>
<path d="M17.0917 10.2623L14.5502 12.8074C14.2413 13.0935 13.7578 13.093 13.4619 12.8195L10.9079 10.2623L10.9303 10.2405L1.70193 0.930233H26.3041L17.0693 10.2409L17.0917 10.2623Z" fill="url(#paint2_linear_2_40)" fill-opacity="0.5"/>
<path d="M18.4226 10.2484L27.0667 1.59163V18.5372L18.4226 10.2484Z" fill="#0B8F98"/>
<path d="M18.4226 10.2484L27.0667 1.59163V18.5372L18.4226 10.2484Z" fill="url(#paint3_linear_2_40)" fill-opacity="0.5"/>
<defs>
<linearGradient id="paint0_linear_2_40" x1="14" y1="0" x2="14" y2="20" gradientUnits="userSpaceOnUse">
<stop stop-color="#F8F8F8"/>
<stop offset="1" stop-color="#3C3C3C"/>
</linearGradient>
<linearGradient id="paint1_linear_2_40" x1="14" y1="0" x2="14" y2="20" gradientUnits="userSpaceOnUse">
<stop stop-color="#F8F8F8"/>
<stop offset="1" stop-color="#3C3C3C"/>
</linearGradient>
<linearGradient id="paint2_linear_2_40" x1="14" y1="0" x2="14" y2="20" gradientUnits="userSpaceOnUse">
<stop stop-color="#F8F8F8"/>
<stop offset="1" stop-color="#3C3C3C"/>
</linearGradient>
<linearGradient id="paint3_linear_2_40" x1="14" y1="0" x2="14" y2="20" gradientUnits="userSpaceOnUse">
<stop stop-color="#F8F8F8"/>
<stop offset="1" stop-color="#3C3C3C"/>
</linearGradient>
</defs>
</svg>
