<svg width="42" height="42" viewBox="0 0 42 42" fill="none" xmlns="http://www.w3.org/2000/svg">
<path d="M12.1332 12.5127C10.0743 14.9097 10.1069 15.7243 12.4534 20.5189C14.381 24.459 17.5475 27.6232 21.4905 29.5495C26.2884 31.8943 27.1036 31.9268 29.5024 29.8694C30.6229 28.9087 31.5393 27.7908 31.5393 27.3852C31.5393 26.3306 27.9932 22.9293 26.8933 22.9293C26.3843 22.9293 25.49 23.5758 24.9053 24.3661C23.3524 26.4647 22.1964 26.1984 19.0016 23.0059C15.8068 19.8134 15.5404 18.6582 17.6405 17.1065C18.4313 16.5222 19.0783 15.6286 19.0783 15.1199C19.0783 14.0208 15.6745 10.4772 14.6192 10.4772C14.2133 10.4772 13.0946 11.3934 12.1332 12.5127Z" fill="#4F4F4F"/>
<path d="M12.1332 12.5127C10.0743 14.9097 10.1069 15.7243 12.4534 20.5189C14.381 24.459 17.5475 27.6232 21.4905 29.5495C26.2884 31.8943 27.1036 31.9268 29.5024 29.8694C30.6229 28.9087 31.5393 27.7908 31.5393 27.3852C31.5393 26.3306 27.9932 22.9293 26.8933 22.9293C26.3843 22.9293 25.49 23.5758 24.9053 24.3661C23.3524 26.4647 22.1964 26.1984 19.0016 23.0059C15.8068 19.8134 15.5404 18.6582 17.6405 17.1065C18.4313 16.5222 19.0783 15.6286 19.0783 15.1199C19.0783 14.0208 15.6745 10.4772 14.6192 10.4772C14.2133 10.4772 13.0946 11.3934 12.1332 12.5127Z" fill="url(#paint0_linear_2_6)" fill-opacity="0.5"/>
<defs>
<linearGradient id="paint0_linear_2_6" x1="21" y1="0" x2="21" y2="42" gradientUnits="userSpaceOnUse">
<stop stop-color="#F8F8F8"/>
<stop offset="1" stop-color="#3C3C3C"/>
</linearGradient>
</defs>
</svg>
