<svg width="23" height="23" viewBox="0 0 23 23" fill="none" xmlns="http://www.w3.org/2000/svg">
<path d="M21.5663 16.7827L21.4165 16.6187C20.2311 15.3024 19.2404 14.6175 18.3902 14.5274C17.6552 14.4394 16.9445 14.8856 16.1888 15.3449L15.3812 15.7881C15.2844 15.8306 15.1888 15.865 15.099 15.8882C14.6267 16.0056 13.4343 16.0744 12.7593 15.5321C11.9736 14.9008 10.7548 13.7453 9.8067 12.7356C8.90123 11.6904 7.90591 10.3872 7.38636 9.56669C6.94745 8.8716 7.31493 7.89929 7.56031 7.53909C7.60869 7.46827 7.67205 7.39846 7.74232 7.32966L8.45426 6.75194C8.46462 6.74283 8.46923 6.7317 8.47845 6.72361C8.48536 6.71754 8.49688 6.71956 8.50494 6.7145C9.14776 6.23796 9.81246 5.74725 9.90347 5.11691C10.0106 4.37629 9.48644 3.37464 8.29874 2.05933L8.15358 1.89542C7.41861 1.06779 6.30694 -0.183769 4.71027 0.0226328C4.08243 0.104586 3.52141 0.292776 2.94311 0.611485C2.93735 0.61452 2.93389 0.620591 2.92928 0.623626C2.92468 0.626661 2.91892 0.626661 2.91431 0.629697L2.10906 1.1538C2.101 1.15784 2.09639 1.16695 2.08833 1.17302C2.08257 1.17808 2.07335 1.17909 2.06644 1.18415C1.97313 1.25295 1.87981 1.32377 1.78765 1.39662C0.97089 2.03606 -0.797424 3.89266 0.408716 7.32662C1.18747 9.54443 2.79335 12.1325 5.06393 14.8259L5.04204 14.8421L6.29426 16.212L6.30463 16.2049C8.76645 18.7627 11.272 20.7397 13.568 21.9366C15.1001 22.7359 16.4387 23 17.54 23C18.9893 23 20.0272 22.5427 20.5479 22.2452L20.8751 22.053C20.9119 22.0307 20.9384 21.9994 20.9649 21.971L21.678 21.4995C21.6861 21.4935 21.6907 21.4854 21.6988 21.4793C21.7022 21.4763 21.708 21.4773 21.7126 21.4742C22.2195 21.0675 22.5708 20.6416 22.815 20.1367C23.4475 18.8426 22.3151 17.6032 21.5663 16.7827ZM21.9683 19.819C21.7782 20.2116 21.5006 20.5454 21.0997 20.8692L20.0387 21.5704C19.078 22.1187 17.024 22.7966 14.0403 21.2405C11.7444 20.0436 9.21688 18.0201 6.72972 15.3884L6.05695 14.6417C3.71494 11.914 2.06759 9.3016 1.28999 7.08784C0.279692 4.20935 1.55265 2.66538 2.40512 1.99863C2.49152 1.92983 2.57792 1.86608 2.66317 1.80234L2.66663 1.79931L3.43962 1.29646C3.90963 1.03542 4.34509 0.889722 4.8462 0.822945C5.9084 0.682357 6.77428 1.65806 7.41229 2.37701C7.4171 2.38242 7.42189 2.38783 7.42668 2.39322L7.57644 2.56016C8.90353 4.03027 9.03141 4.7294 8.98993 5.01472C8.94385 5.33141 8.3955 5.73713 7.91167 6.09428L7.8437 6.14487C7.84139 6.1469 7.84024 6.14993 7.83794 6.15195C7.83448 6.15398 7.83103 6.15499 7.82757 6.15701L7.09144 6.75497C7.08684 6.75902 7.08453 6.76408 7.07993 6.76914C7.07532 6.77419 7.0661 6.77622 7.06149 6.78128C6.94744 6.89358 6.84952 7.00589 6.77004 7.12224C6.35647 7.73032 5.96594 8.98694 6.58226 9.95926C7.12024 10.8091 8.14437 12.1518 9.08555 13.2364C10.0694 14.2846 11.3239 15.4744 12.1372 16.127C12.7466 16.6157 13.5945 16.7796 14.3283 16.7796C14.7211 16.7796 15.0817 16.7321 15.3547 16.6643C15.4987 16.6279 15.6473 16.5752 15.8005 16.5095C15.8097 16.5054 15.8144 16.4983 15.8236 16.4933C15.8282 16.4913 15.8351 16.4923 15.8397 16.4892L16.6945 16.0198C16.7221 16.0036 16.7406 15.9823 16.7636 15.9621L16.774 15.9722C17.3004 15.6515 17.9006 15.2751 18.2762 15.3297C18.6091 15.3652 19.3648 15.6464 20.6942 17.1206L20.8474 17.2896L20.8481 17.2903C21.4955 17.9995 22.3817 18.9704 21.9683 19.819Z" fill="#0B8F98"/>
<path d="M21.5663 16.7827L21.4165 16.6187C20.2311 15.3024 19.2404 14.6175 18.3902 14.5274C17.6552 14.4394 16.9445 14.8856 16.1888 15.3449L15.3812 15.7881C15.2844 15.8306 15.1888 15.865 15.099 15.8882C14.6267 16.0056 13.4343 16.0744 12.7593 15.5321C11.9736 14.9008 10.7548 13.7453 9.8067 12.7356C8.90123 11.6904 7.90591 10.3872 7.38636 9.56669C6.94745 8.8716 7.31493 7.89929 7.56031 7.53909C7.60869 7.46827 7.67205 7.39846 7.74232 7.32966L8.45426 6.75194C8.46462 6.74283 8.46923 6.7317 8.47845 6.72361C8.48536 6.71754 8.49688 6.71956 8.50494 6.7145C9.14776 6.23796 9.81246 5.74725 9.90347 5.11691C10.0106 4.37629 9.48644 3.37464 8.29874 2.05933L8.15358 1.89542C7.41861 1.06779 6.30694 -0.183769 4.71027 0.0226328C4.08243 0.104586 3.52141 0.292776 2.94311 0.611485C2.93735 0.61452 2.93389 0.620591 2.92928 0.623626C2.92468 0.626661 2.91892 0.626661 2.91431 0.629697L2.10906 1.1538C2.101 1.15784 2.09639 1.16695 2.08833 1.17302C2.08257 1.17808 2.07335 1.17909 2.06644 1.18415C1.97313 1.25295 1.87981 1.32377 1.78765 1.39662C0.97089 2.03606 -0.797424 3.89266 0.408716 7.32662C1.18747 9.54443 2.79335 12.1325 5.06393 14.8259L5.04204 14.8421L6.29426 16.212L6.30463 16.2049C8.76645 18.7627 11.272 20.7397 13.568 21.9366C15.1001 22.7359 16.4387 23 17.54 23C18.9893 23 20.0272 22.5427 20.5479 22.2452L20.8751 22.053C20.9119 22.0307 20.9384 21.9994 20.9649 21.971L21.678 21.4995C21.6861 21.4935 21.6907 21.4854 21.6988 21.4793C21.7022 21.4763 21.708 21.4773 21.7126 21.4742C22.2195 21.0675 22.5708 20.6416 22.815 20.1367C23.4475 18.8426 22.3151 17.6032 21.5663 16.7827ZM21.9683 19.819C21.7782 20.2116 21.5006 20.5454 21.0997 20.8692L20.0387 21.5704C19.078 22.1187 17.024 22.7966 14.0403 21.2405C11.7444 20.0436 9.21688 18.0201 6.72972 15.3884L6.05695 14.6417C3.71494 11.914 2.06759 9.3016 1.28999 7.08784C0.279692 4.20935 1.55265 2.66538 2.40512 1.99863C2.49152 1.92983 2.57792 1.86608 2.66317 1.80234L2.66663 1.79931L3.43962 1.29646C3.90963 1.03542 4.34509 0.889722 4.8462 0.822945C5.9084 0.682357 6.77428 1.65806 7.41229 2.37701C7.4171 2.38242 7.42189 2.38783 7.42668 2.39322L7.57644 2.56016C8.90353 4.03027 9.03141 4.7294 8.98993 5.01472C8.94385 5.33141 8.3955 5.73713 7.91167 6.09428L7.8437 6.14487C7.84139 6.1469 7.84024 6.14993 7.83794 6.15195C7.83448 6.15398 7.83103 6.15499 7.82757 6.15701L7.09144 6.75497C7.08684 6.75902 7.08453 6.76408 7.07993 6.76914C7.07532 6.77419 7.0661 6.77622 7.06149 6.78128C6.94744 6.89358 6.84952 7.00589 6.77004 7.12224C6.35647 7.73032 5.96594 8.98694 6.58226 9.95926C7.12024 10.8091 8.14437 12.1518 9.08555 13.2364C10.0694 14.2846 11.3239 15.4744 12.1372 16.127C12.7466 16.6157 13.5945 16.7796 14.3283 16.7796C14.7211 16.7796 15.0817 16.7321 15.3547 16.6643C15.4987 16.6279 15.6473 16.5752 15.8005 16.5095C15.8097 16.5054 15.8144 16.4983 15.8236 16.4933C15.8282 16.4913 15.8351 16.4923 15.8397 16.4892L16.6945 16.0198C16.7221 16.0036 16.7406 15.9823 16.7636 15.9621L16.774 15.9722C17.3004 15.6515 17.9006 15.2751 18.2762 15.3297C18.6091 15.3652 19.3648 15.6464 20.6942 17.1206L20.8474 17.2896L20.8481 17.2903C21.4955 17.9995 22.3817 18.9704 21.9683 19.819Z" fill="url(#paint0_linear_2_41)" fill-opacity="0.5"/>
<path d="M21.9683 19.819C21.7782 20.2116 21.5006 20.5454 21.0997 20.8692L20.0387 21.5704C19.078 22.1187 17.024 22.7966 14.0403 21.2405C11.7444 20.0436 9.21688 18.0201 6.72972 15.3884L6.05695 14.6417C3.71494 11.914 2.06759 9.3016 1.28999 7.08784C0.279692 4.20935 1.55265 2.66538 2.40512 1.99863C2.49152 1.92983 2.57792 1.86608 2.66317 1.80234L2.66663 1.79931L3.43962 1.29646C3.90963 1.03542 4.34509 0.889722 4.8462 0.822945C5.9084 0.682357 6.77428 1.65806 7.41229 2.37701L7.42668 2.39322L7.57644 2.56016C8.90353 4.03027 9.03141 4.7294 8.98993 5.01472C8.94385 5.33141 8.3955 5.73713 7.91167 6.09428L7.8437 6.14487C7.84139 6.1469 7.84024 6.14993 7.83794 6.15195C7.83448 6.15398 7.83103 6.15499 7.82757 6.15701L7.09144 6.75497C7.08684 6.75902 7.08453 6.76408 7.07993 6.76914C7.07532 6.77419 7.0661 6.77622 7.06149 6.78128C6.94744 6.89358 6.84952 7.00589 6.77004 7.12224C6.35647 7.73032 5.96594 8.98694 6.58226 9.95926C7.12024 10.8091 8.14437 12.1518 9.08555 13.2364C10.0694 14.2846 11.3239 15.4744 12.1372 16.127C12.7466 16.6157 13.5945 16.7796 14.3283 16.7796C14.7211 16.7796 15.0817 16.7321 15.3547 16.6643C15.4987 16.6279 15.6473 16.5752 15.8005 16.5095C15.8097 16.5054 15.8144 16.4983 15.8236 16.4933C15.8282 16.4913 15.8351 16.4923 15.8397 16.4892L16.6945 16.0198C16.7221 16.0036 16.7406 15.9823 16.7636 15.9621L16.774 15.9722C17.3004 15.6515 17.9006 15.2751 18.2762 15.3297C18.6091 15.3652 19.3648 15.6464 20.6942 17.1206L20.8474 17.2896L20.8481 17.2903C21.4955 17.9995 22.3817 18.9704 21.9683 19.819Z" fill="#0B8F98"/>
<path d="M21.9683 19.819C21.7782 20.2116 21.5006 20.5454 21.0997 20.8692L20.0387 21.5704C19.078 22.1187 17.024 22.7966 14.0403 21.2405C11.7444 20.0436 9.21688 18.0201 6.72972 15.3884L6.05695 14.6417C3.71494 11.914 2.06759 9.3016 1.28999 7.08784C0.279692 4.20935 1.55265 2.66538 2.40512 1.99863C2.49152 1.92983 2.57792 1.86608 2.66317 1.80234L2.66663 1.79931L3.43962 1.29646C3.90963 1.03542 4.34509 0.889722 4.8462 0.822945C5.9084 0.682357 6.77428 1.65806 7.41229 2.37701L7.42668 2.39322L7.57644 2.56016C8.90353 4.03027 9.03141 4.7294 8.98993 5.01472C8.94385 5.33141 8.3955 5.73713 7.91167 6.09428L7.8437 6.14487C7.84139 6.1469 7.84024 6.14993 7.83794 6.15195C7.83448 6.15398 7.83103 6.15499 7.82757 6.15701L7.09144 6.75497C7.08684 6.75902 7.08453 6.76408 7.07993 6.76914C7.07532 6.77419 7.0661 6.77622 7.06149 6.78128C6.94744 6.89358 6.84952 7.00589 6.77004 7.12224C6.35647 7.73032 5.96594 8.98694 6.58226 9.95926C7.12024 10.8091 8.14437 12.1518 9.08555 13.2364C10.0694 14.2846 11.3239 15.4744 12.1372 16.127C12.7466 16.6157 13.5945 16.7796 14.3283 16.7796C14.7211 16.7796 15.0817 16.7321 15.3547 16.6643C15.4987 16.6279 15.6473 16.5752 15.8005 16.5095C15.8097 16.5054 15.8144 16.4983 15.8236 16.4933C15.8282 16.4913 15.8351 16.4923 15.8397 16.4892L16.6945 16.0198C16.7221 16.0036 16.7406 15.9823 16.7636 15.9621L16.774 15.9722C17.3004 15.6515 17.9006 15.2751 18.2762 15.3297C18.6091 15.3652 19.3648 15.6464 20.6942 17.1206L20.8474 17.2896L20.8481 17.2903C21.4955 17.9995 22.3817 18.9704 21.9683 19.819Z" fill="url(#paint1_linear_2_41)" fill-opacity="0.5"/>
<defs>
<linearGradient id="paint0_linear_2_41" x1="11.5" y1="0" x2="11.5" y2="23" gradientUnits="userSpaceOnUse">
<stop stop-color="#F8F8F8"/>
<stop offset="1" stop-color="#3C3C3C"/>
</linearGradient>
<linearGradient id="paint1_linear_2_41" x1="11.5" y1="0" x2="11.5" y2="23" gradientUnits="userSpaceOnUse">
<stop stop-color="#F8F8F8"/>
<stop offset="1" stop-color="#3C3C3C"/>
</linearGradient>
</defs>
</svg>
