<svg width="23" height="22" viewBox="0 0 23 22" fill="none" xmlns="http://www.w3.org/2000/svg">
<path fill-rule="evenodd" clip-rule="evenodd" d="M10.7093 0.0157457C8.61874 0.16282 6.57861 0.863215 4.88628 2.01489C1.7493 4.14968 -0.0806172 7.65747 0.0676585 11.2518C0.142361 13.0625 0.716483 14.8538 1.73207 16.4448L1.94166 16.7731L1.87982 16.9521C1.82466 17.1119 0.845306 19.7184 0.221927 21.3644C0.0923502 21.7066 -0.00732651 21.9925 0.000422985 21.9999C0.0119374 22.0108 2.40349 21.3766 5.51599 20.5373L6.09946 20.3799L6.66116 20.6438C8.3786 21.4507 9.91093 21.815 11.5682 21.8106C13.3839 21.8057 15.0343 21.4337 16.6494 20.6653C19.4059 19.3538 21.4721 17.0772 22.4432 14.2814C23.0027 12.6708 23.1475 10.806 22.8459 9.09637C22.3237 6.13605 20.5424 3.51915 17.9058 1.83896C16.355 0.85065 14.62 0.250116 12.729 0.0471424C12.3122 0.00240523 11.1548 -0.0155912 10.7093 0.0157457ZM12.5881 1.73056C15.1727 2.00525 17.4762 3.2065 19.1024 5.12778C20.8292 7.16775 21.5517 9.80703 21.1016 12.4307C20.7585 14.4314 19.6757 16.3338 18.1014 17.7022C16.4914 19.1015 14.5217 19.9197 12.3212 20.1033C11.8092 20.146 10.7589 20.1227 10.2662 20.0577C8.93816 19.8825 7.67104 19.4571 6.53387 18.8048L6.19004 18.6075L5.78089 18.7151C5.55584 18.7742 5.05407 18.9079 4.66581 19.012C4.27755 19.1161 3.70666 19.2692 3.39715 19.352C3.08767 19.4349 2.82924 19.4978 2.8229 19.4917C2.80998 19.4794 2.90997 19.2045 3.28521 18.2205C3.70434 17.1215 3.88145 16.643 3.88145 16.6099C3.88145 16.5927 3.79244 16.4612 3.68363 16.3177C2.68843 15.005 2.07509 13.4988 1.88832 11.9086C1.83514 11.4559 1.82811 10.4991 1.87448 10.0282C2.02307 8.51974 2.56472 7.06538 3.44722 5.80519C3.61392 5.56715 3.84584 5.25826 3.96261 5.11873C4.23623 4.79185 5.10652 3.96399 5.45017 3.70371C6.07393 3.2313 6.96618 2.72287 7.70985 2.41606C8.52556 2.07953 9.65974 1.80162 10.5489 1.72041C11.0181 1.67759 12.1422 1.68317 12.5881 1.73056ZM6.98752 5.05711C6.69621 5.14172 6.45622 5.34039 6.0999 5.79203C5.30064 6.80508 5.13881 8.1822 5.66003 9.53574C6.09705 10.6707 7.24987 12.3066 8.51781 13.591C9.44335 14.5286 10.4057 15.249 11.4427 15.7807C12.0538 16.094 13.4535 16.6113 13.9591 16.7106C14.5201 16.8209 15.2507 16.7954 15.7096 16.6498C16.1857 16.4987 16.786 16.1289 17.1314 15.7741C17.2275 15.6753 17.3566 15.497 17.4181 15.378C17.6632 14.904 17.7923 13.9242 17.636 13.7239C17.5697 13.6389 17.0225 13.3508 15.7465 12.7288C15.0504 12.3896 14.8485 12.3113 14.6694 12.3113C14.5114 12.3113 14.4129 12.4012 14.0957 12.8345C13.8114 13.2231 13.3171 13.8144 13.226 13.8751C13.075 13.9757 12.928 13.94 12.332 13.658C11.465 13.2478 10.9174 12.8815 10.2544 12.2683C9.61933 11.6808 9.00807 10.91 8.61648 10.2027C8.45854 9.91746 8.45829 9.7771 8.61532 9.60066C8.93813 9.23804 9.26967 8.80258 9.38048 8.59564C9.57067 8.24046 9.56518 8.18689 9.26417 7.46154C9.12795 7.13325 8.89151 6.54982 8.73878 6.16506C8.38967 5.28566 8.30421 5.14339 8.07574 5.06105C7.97594 5.02505 7.10865 5.02195 6.98752 5.05711Z" fill="#4F4F4F"/>
</svg>
